# xmcd CD database file
#
# Track frame offsets:
#	150
#	12922
#	42701
#	71959
#	98290
#	119957
#	142396
#	151849
#	183860
#	206547
#	229543
#	253769
#
# Disc length: 3786 seconds
#
# Revision: 0
# Processed by: cddbd v1.5.1PL2 Copyright (c) Steve Scherf et al.
# Submitted via: CDex 1.51
#
DISCID=ad0ec80c
DTITLE=Bertoncini, Gene - Acoustic Romance
DYEAR=1992
DGENRE=Jazz
TTITLE0=Edelweiss
TTITLE1=The Shadow Of Your Smile
TTITLE2=Girl Talk
TTITLE3=Two For The Road
TTITLE4=Gone With The Wind
TTITLE5=Round Midnight
TTITLE6=Theme For The Summer Of ´42
TTITLE7=What Are You Doing For The Rest Of Your Life
TTITLE8=Stella By Starlight
TTITLE9=Emily
TTITLE10=Invitation
TTITLE11=Cavatina
EXTD=YEAR: 1992
EXTT0=
EXTT1=
EXTT2=
EXTT3=
EXTT4=
EXTT5=
EXTT6=
EXTT7=
EXTT8=
EXTT9=
EXTT10=
EXTT11=
PLAYORDER=
